<?xml version="1.0" encoding="UTF-8"?>
<svg version="1.1" xmlns="http://www.w3.org/2000/svg" width="256" height="256">
<path d="M0 0 C1.12051758 0.00410889 1.12051758 0.00410889 2.26367188 0.00830078 C7.60823924 0.11000187 11.79661758 0.73098035 16.5625 3.3125 C17.94476016 6.07702033 17.65775387 8.3586363 17.625 11.4375 C17.61597656 12.53320312 17.60695312 13.62890625 17.59765625 14.7578125 C17.58025391 16.02238281 17.58025391 16.02238281 17.5625 17.3125 C18.97951454 17.30583817 18.97951454 17.30583817 20.42515564 17.29904175 C29.35503629 17.25838828 38.28489801 17.22846422 47.21485043 17.20887566 C51.80513828 17.19846624 56.39535105 17.18435927 60.9855957 17.16162109 C65.42060134 17.13979095 69.85553504 17.12791002 74.29059029 17.12274551 C75.97735284 17.11906795 77.66411174 17.11188684 79.35084343 17.10103989 C102.72130852 16.95681243 102.72130852 16.95681243 111.37890625 25 C120.50163294 34.44649778 120.0003634 45.98306498 119.95068359 58.36938477 C119.95475485 60.08037652 119.96009982 61.79136565 119.96661377 63.50234985 C119.98022631 68.12418167 119.97501417 72.74581135 119.96547651 77.36764646 C119.95784961 82.21742858 119.9649338 87.06719408 119.96963501 91.91697693 C119.97508324 100.05820809 119.96792493 108.19935744 119.95361328 116.34057617 C119.93728309 125.73828037 119.94258173 135.13578933 119.9590925 144.53348881 C119.97272743 152.61955606 119.97461738 160.70556471 119.96677649 168.79163975 C119.96211171 173.61355757 119.96144226 178.43538376 119.97138596 183.25729561 C119.9800828 187.79069362 119.97398427 192.32384099 119.95670319 196.85721207 C119.95275306 198.51598254 119.953847 200.17477428 119.96049118 201.83353615 C120.00677278 214.56661488 119.11958055 223.57150818 109.90234375 233.20703125 C103.29416187 239.15329174 95.20131217 239.4669762 86.63671875 239.48046875 C85.88969193 239.48379715 85.1426651 239.48712555 84.3730011 239.49055481 C82.7988852 239.49559515 81.22475872 239.49796403 79.65063477 239.49780273 C77.26755771 239.49998393 74.88494817 239.51815569 72.50195312 239.53710938 C60.99759249 239.58128877 50.4947152 239.52410497 41.5625 231.3125 C37.32214591 225.67647381 34.46375627 220.35047645 34.41101074 213.23164368 C34.40266708 212.42824554 34.39432343 211.62484741 34.38572693 210.79710388 C34.38154251 209.92473587 34.37735809 209.05236786 34.37304688 208.15356445 C34.36060692 206.76521393 34.36060692 206.76521393 34.34791565 205.34881592 C34.33053327 203.34140533 34.31536152 201.33397466 34.30213928 199.32653236 C34.28110836 196.15441721 34.25408838 192.98240364 34.22546387 189.81034851 C34.15564109 181.9357508 34.09612219 174.06108131 34.03643799 166.18640137 C33.98559982 159.52719426 33.93081933 152.86804308 33.87062073 146.2089138 C33.84395699 143.07510897 33.82320048 139.94129915 33.8026123 136.80744934 C33.78601851 134.89938098 33.76914749 132.991315 33.75195312 131.08325195 C33.74776871 130.20481125 33.74358429 129.32637054 33.73927307 128.42131042 C34.07743294 124.55484175 34.07743294 124.55484175 32.5625 121.3125 C27.6125 120.9825 22.6625 120.6525 17.5625 120.3125 C17.5625 163.8725 17.5625 207.4325 17.5625 252.3125 C7.07821445 256.97218247 7.07821445 256.97218247 0 256.75 C-0.73871338 256.7382373 -1.47742676 256.72647461 -2.23852539 256.71435547 C-8.38876877 256.51975766 -13.88508627 255.86491373 -18.4375 251.3125 C-18.6328125 248.4921875 -18.6328125 248.4921875 -18.5625 245.1875 C-18.54445313 244.09179688 -18.52640625 242.99609375 -18.5078125 241.8671875 C-18.48460938 241.02414063 -18.46140625 240.18109375 -18.4375 239.3125 C-19.85451454 239.31916183 -19.85451454 239.31916183 -21.30015564 239.32595825 C-30.23003629 239.36661172 -39.15989801 239.39653578 -48.08985043 239.41612434 C-52.68013828 239.42653376 -57.27035105 239.44064073 -61.8605957 239.46337891 C-66.29560134 239.48520905 -70.73053504 239.49708998 -75.16559029 239.50225449 C-76.85235284 239.50593205 -78.53911174 239.51311316 -80.22584343 239.52396011 C-103.29401324 239.666322 -103.29401324 239.666322 -112.4375 231.3125 C-117.94774301 225.50440602 -119.89344523 219.49326973 -119.83190918 211.62858582 C-119.83800028 210.88645397 -119.84409139 210.14432212 -119.85036707 209.37970144 C-119.8669274 206.90946988 -119.86223137 204.43975774 -119.85742188 201.96948242 C-119.86476633 200.19158903 -119.87335366 198.4137004 -119.88308716 196.63581848 C-119.90527387 191.81749105 -119.90823521 186.99933478 -119.90633965 182.18096328 C-119.9062198 178.15282216 -119.91478995 174.12471711 -119.92311716 170.09658605 C-119.94234156 160.58934986 -119.94523879 151.08220147 -119.93847656 141.57495117 C-119.93183853 131.78132307 -119.95469284 121.98807185 -119.99179029 112.19452018 C-120.02252473 103.77388825 -120.0338432 95.35337731 -120.02995348 86.93269044 C-120.02788961 81.90884534 -120.03330913 76.88529347 -120.05784607 71.86150169 C-120.08017212 67.1343272 -120.07818679 62.4077636 -120.05791855 57.68058586 C-120.05451869 55.95127636 -120.05955325 54.22192527 -120.07390213 52.49267197 C-120.16316913 40.93176308 -119.25920308 31.99979202 -110.8125 23.375 C-101.90449347 16.35734639 -90.56503701 16.83527853 -79.77612305 16.92138672 C-77.37556349 16.93749622 -74.9766811 16.92145179 -72.57617188 16.90234375 C-60.67520577 16.88501718 -50.47237791 17.71681755 -41.4375 26.3125 C-36.07475307 33.08649613 -35.14021731 39.33326366 -35.13452148 47.68261719 C-35.12608215 48.60686996 -35.11764282 49.53112274 -35.10894775 50.48338318 C-35.08324496 53.5253859 -35.07104921 56.56729179 -35.05859375 59.609375 C-35.04241517 61.72593958 -35.0252348 63.84249672 -35.00709534 65.95904541 C-34.96146842 71.52142913 -34.92662661 77.08382279 -34.89489746 82.64630127 C-34.84295695 91.5639778 -34.77799041 100.48154543 -34.70668221 109.399086 C-34.68380629 112.5178988 -34.66756623 115.6366976 -34.65196228 118.7555542 C-34.63856068 120.65702471 -34.62494632 122.55849373 -34.61108398 124.45996094 C-34.60847061 125.33166428 -34.60585724 126.20336761 -34.60316467 127.10148621 C-34.68547106 131.34180943 -34.68547106 131.34180943 -33.4375 135.3125 C-30.88808627 135.62491371 -28.43388487 135.82553421 -25.875 135.9375 C-24.80862305 135.99550781 -24.80862305 135.99550781 -23.72070312 136.0546875 C-21.96007575 136.14921783 -20.19882272 136.23195817 -18.4375 136.3125 C-18.44026538 135.64012645 -18.44303076 134.9677529 -18.44587994 134.27500439 C-18.51209076 117.92572284 -18.56175663 101.57648369 -18.59293652 85.22709942 C-18.60841509 77.32070289 -18.62952341 69.41439578 -18.66381836 61.50805664 C-18.69369054 54.6180647 -18.7130678 47.72813751 -18.71976548 40.83808261 C-18.72368148 37.18875892 -18.73290489 33.53962047 -18.75469017 29.89035606 C-18.778795 25.81964219 -18.77947141 21.74925176 -18.77807617 17.6784668 C-18.788862 16.46430588 -18.79964783 15.25014496 -18.8107605 13.99919128 C-18.80663651 12.89281311 -18.80251251 11.78643494 -18.79826355 10.64653015 C-18.80102893 9.68325648 -18.80379431 8.71998281 -18.80664349 7.72751904 C-18.36820245 4.85913998 -17.74405104 4.0195533 -15.4375 2.3125 C-10.23076701 0.38813268 -5.47538507 -0.0404404 0 0 Z M-86.4375 40.3125 C-88.35460309 43.38502886 -88.68705686 45.26169287 -88 48.8125 C-87.12022596 52.23008379 -86.24061423 54.01111336 -83.25 55.9375 C-79.37809493 57.68428462 -76.523995 57.59898917 -72.4375 56.3125 C-69.41567716 54.25508871 -67.74738623 52.81300175 -66.9921875 49.15625 C-66.78693298 45.05115968 -67.10061397 42.85151765 -69.3125 39.3125 C-72.58524275 36.23227153 -74.90142693 35.97016332 -79.40234375 36.02734375 C-82.62785622 36.47928696 -84.24650197 37.99261974 -86.4375 40.3125 Z M67.5625 41.3125 C65.98794261 44.46161479 66.21450882 46.83258816 66.5625 50.3125 C68.45812653 53.51136977 69.90877367 55.67410051 73.46484375 57.046875 C77.42377541 57.80674672 79.25601801 57.46574099 82.9375 55.625 C86.1060682 52.96135029 86.1060682 52.96135029 87.5625 49.3125 C87.48686962 44.54778578 87.20812276 42.28093414 84.5625 38.3125 C81.02593145 35.95478764 78.89709662 35.58965485 74.71875 35.8125 C71.26878222 36.61249253 69.65322004 38.56842995 67.5625 41.3125 Z M-100.875 121.0625 C-101.77125314 124.64751256 -101.59753788 127.84611463 -100.4375 131.3125 C-97.98489878 134.18383801 -96.17170049 135.89927254 -92.4375 136.7890625 C-88.42243232 137.0780257 -86.61892773 136.45918625 -83.5 133.9375 C-80.2976607 129.86179544 -79.91578203 127.52967968 -80.4375 122.3125 C-82.33312653 119.11363023 -83.78377367 116.95089949 -87.33984375 115.578125 C-93.23449354 114.44671429 -97.04402632 116.39870595 -100.875 121.0625 Z M80.5625 125.3125 C79.5062138 128.06336299 79.21319781 130.38637835 79.5625 133.3125 C81.1459833 136.4794666 82.58654276 138.51082084 85.3125 140.75 C88.89541009 141.64572752 92.09912242 141.47838948 95.5625 140.3125 C99.1045773 137.21318236 100.40622778 135.42593956 101.0625 130.75 C100.53550076 127.12688025 99.78514703 125.19370911 97.5625 122.3125 C91.11611848 118.01491232 85.39954661 119.64961617 80.5625 125.3125 Z M-86.4375 203.3125 C-88.21415262 206.24783911 -88.45529354 207.8854551 -88.3125 211.3125 C-87.30280833 214.7743 -85.89802585 216.70285137 -83.4375 219.3125 C-80.23576746 220.91336627 -76.91172941 220.81167089 -73.4375 220.3125 C-70.6274654 218.51886089 -68.92809532 217.29369065 -67.4375 214.3125 C-67.01678408 211.25329426 -66.95235883 208.3657254 -67.4375 205.3125 C-69.61909145 202.55680553 -71.30927494 200.87661253 -74.4375 199.3125 C-79.69486353 198.71507233 -82.4100677 199.92579557 -86.4375 203.3125 Z M67.5625 204.3125 C66.03035112 207.37679776 66.33311452 209.9290642 66.5625 213.3125 C68.21389305 216.8511994 69.27855229 218.12320153 72.5625 220.3125 C77.57654405 220.8878821 79.59500787 220.87540451 84 218.3125 C86.74001067 215.10468264 87.57130732 213.42386431 87.8046875 209.30859375 C87.39237 205.91029949 85.74241919 203.85573905 83.5625 201.3125 C77.00043053 196.93778702 72.55994901 199.31505099 67.5625 204.3125 Z " fill="#242F3A" transform="translate(128.4375,-0.3125)"/>
<path d="M0 0 C1.12051758 0.00410889 1.12051758 0.00410889 2.26367188 0.00830078 C7.60823924 0.11000187 11.79661758 0.73098035 16.5625 3.3125 C17.70837924 5.60425848 17.68683814 6.86901661 17.68554783 9.4160862 C17.68753888 10.280467 17.68952993 11.14484781 17.69158131 12.03542197 C17.68721205 13.46827979 17.68721205 13.46827979 17.68275452 14.93008423 C17.68360894 15.94043051 17.68446337 16.95077679 17.68534368 17.99173963 C17.68699921 21.3989704 17.6814759 24.80615263 17.67602539 28.21337891 C17.67574351 30.64714049 17.67590127 33.08090216 17.6764679 35.5146637 C17.67669609 40.76556498 17.67384791 46.01645516 17.66823006 51.26735306 C17.66011279 58.85932697 17.6574996 66.45129487 17.65624207 74.04327266 C17.6540519 86.35990653 17.64739278 98.67653379 17.63793945 110.99316406 C17.62876441 122.95963508 17.62168403 134.9261043 17.61743164 146.89257812 C17.61716892 147.62984059 17.61690619 148.36710305 17.61663551 149.12670679 C17.6153305 152.82523111 17.61406678 156.52375545 17.61282361 160.22227979 C17.60245211 190.91902459 17.58476057 221.61576138 17.5625 252.3125 C16.15594584 252.97634291 14.74498609 253.63085561 13.33227539 254.28149414 C12.54703995 254.64698868 11.7618045 255.01248322 10.95277405 255.38905334 C7.28180175 256.80727863 3.89221041 256.87217501 0 256.75 C-0.73871338 256.7382373 -1.47742676 256.72647461 -2.23852539 256.71435547 C-8.38876877 256.51975766 -13.88508627 255.86491373 -18.4375 251.3125 C-18.689349 249.49019581 -18.689349 249.49019581 -18.69197559 247.23291111 C-18.69780779 246.3738638 -18.70363998 245.51481649 -18.70964891 244.62973744 C-18.70586958 243.6804362 -18.70209026 242.73113496 -18.69819641 241.75306702 C-18.70202196 240.74892098 -18.70584751 239.74477495 -18.70978898 238.71020025 C-18.72016093 235.32375636 -18.71611889 231.9374807 -18.7121582 228.55102539 C-18.71650235 226.13198183 -18.7216845 223.71293965 -18.72764587 221.29389954 C-18.73968192 215.39225835 -18.74218341 209.49065935 -18.73984561 203.58901054 C-18.73806509 198.79359766 -18.73980636 193.99819862 -18.74407005 189.2027874 C-18.74466524 188.52118568 -18.74526043 187.83958397 -18.74587366 187.13732765 C-18.74708536 185.75280591 -18.7482995 184.36828417 -18.74951603 182.98376244 C-18.76040138 169.98927397 -18.7582244 156.99481143 -18.75213119 144.0003215 C-18.74696132 132.10403398 -18.75821753 120.20782833 -18.77722941 108.311557 C-18.7965862 96.10620749 -18.8048676 83.90089675 -18.80110615 71.69553179 C-18.7991908 64.83924602 -18.80171408 57.98302995 -18.81582069 51.12675667 C-18.8289478 44.68112755 -18.82650385 38.23562159 -18.81340981 31.78999138 C-18.81103322 29.41917746 -18.81381708 27.04835215 -18.82203293 24.67755127 C-18.83241079 21.45114574 -18.82447201 18.22530126 -18.8117218 14.99891663 C-18.81909609 14.05184611 -18.82647037 13.10477559 -18.83406812 12.12900597 C-18.82686158 11.26735091 -18.81965503 10.40569585 -18.81223011 9.51793003 C-18.81228513 8.77286373 -18.81234014 8.02779742 -18.81239682 7.26015335 C-18.32591422 4.73279274 -17.44454878 3.88323617 -15.4375 2.3125 C-10.23076701 0.38813268 -5.47538507 -0.0404404 0 0 Z " fill="#1E2732" transform="translate(128.4375,-0.3125)"/>
<path d="M0 0 C11.88 0 23.76 0 36 0 C36 5.94 36 11.88 36 18 C24.12 18 12.24 18 0 18 C0 12.06 0 6.12 0 0 Z " fill="#121820" transform="translate(110,119)"/>
<path d="M0 0 C11.88 0 23.76 0 36 0 C36 4.62 36 9.24 36 14 C27.2075323 19.11561757 17.06363956 19.54455628 7.1953125 17.38671875 C4.26619468 16.34060524 2.20565421 15.20565421 0 13 C0 8.71 0 4.42 0 0 Z " fill="#111820" transform="translate(110,238)"/>
<path d="M0 0 C1.12051758 0.00410889 1.12051758 0.00410889 2.26367188 0.00830078 C7.60823924 0.11000187 11.79661758 0.73098035 16.5625 3.3125 C18.80353151 7.79456302 17.5625 13.30140121 17.5625 18.3125 C5.6825 18.3125 -6.1975 18.3125 -18.4375 18.3125 C-18.4375 14.0225 -18.4375 9.7325 -18.4375 5.3125 C-13.22665601 0.10165601 -7.00947373 -0.05177096 0 0 Z " fill="#111820" transform="translate(128.4375,-0.3125)"/>
</svg>
